v -12.6562 21.3906 4.8867
v -12.6562 21.3906 7.2578
v -12.6562 21.8594 7.2578
v -12.6562 21.8594 4.8867
v 0.7910 -27.4375 12.6641
v 0.0000 -27.5938 12.6641
v 0.0000 -27.5938 11.7891
v -0.7910 -27.4375 11.7891
v 0.7910 -27.4375 11.7891
v -0.7910 -27.4375 12.6641
v 1.4668 -26.9844 12.6641
v -1.4668 -26.9844 11.7891
v 1.4668 -26.9844 11.7891
v -1.4668 -26.9844 12.6641
v 1.9062 -26.3125 12.6641
v -1.9062 -26.3125 11.7891
v 1.9062 -26.3125 11.7891
v -1.9062 -26.3125 12.6641
v 2.0664 -25.5156 12.6641
v -2.0664 -25.5156 11.7891
v 2.0664 -25.5156 11.7891
v -2.0664 -25.5156 12.6641
v 1.9062 -24.7344 11.7891
v -1.9062 -24.7344 11.7891
v 1.9062 -24.7344 12.6641
v -1.9062 -24.7344 12.6641
v 1.4668 -24.0625 11.7891
v -1.4668 -24.0625 11.7891
v 1.4668 -24.0625 12.6641
v -1.4668 -24.0625 12.6641
v 0.7910 -23.6094 12.6641
v -0.7910 -23.6094 11.7891
v 0.7910 -23.6094 11.7891
v 0.0000 -23.4531 12.6641
v 0.0000 -23.4531 11.7891
v -0.7910 -23.6094 12.6641
v 0.0000 -23.4531 11.7891
v 0.0000 -23.4531 12.6641
v -9.6172 6.3594 14.9844
v -9.6172 4.4844 11.1797
v -9.6172 4.4844 14.9844
v -9.6172 6.3594 11.1797
v -8.0938 6.3594 15.2500
v -9.6172 6.3594 11.1797
v -9.6172 6.3594 14.9844
v -7.0469 6.3594 11.1797
v -7.5703 6.3594 15.8516
v -7.0469 6.3594 15.8516
v -7.0469 4.4844 11.1797
v -7.0469 4.4844 15.8516
v -7.5703 4.4844 15.8516
v -8.0938 4.4844 15.2500
v -9.6172 4.4844 11.1797
v -9.6172 4.4844 14.9844
v 11.0000 6.4805 11.5938
v 11.0000 4.3828 11.5938
v 11.0000 4.3828 9.5078
v 11.0000 6.4805 9.5078
v 11.0000 6.4805 9.5078
v 6.9023 6.4805 9.5078
v 11.0000 6.4805 11.5938
v 6.9023 6.4805 12.3516
v 11.0000 4.3828 11.5938
v 6.9023 4.3828 9.5078
v 11.0000 4.3828 9.5078
v 6.9023 4.3828 12.3516
v -6.8633 0.1936 11.5938
v -4.7617 0.1936 9.5078
v -4.7617 0.1936 11.5938
v -6.8633 0.1936 9.5078
v -6.8633 0.1936 11.5938
v -6.8633 4.2891 12.3516
v -6.8633 4.2891 9.5078
v -6.8633 0.1936 9.5078
v -4.7617 0.1936 11.5938
v -4.7617 4.2891 9.5078
v -4.7617 4.2891 12.3516
v -4.7617 0.1936 9.5078
v 12.6562 17.5781 9.0469
v 12.6562 19.3125 7.2578
v 12.6562 19.3125 9.0469
v 12.6562 17.5781 7.2578
v 12.6562 19.7969 8.2734
v 12.6562 19.7969 9.0469
v 12.6562 20.2812 8.6797
v 12.6562 20.2812 9.0469
v 12.6562 20.7656 9.0469
v 12.6562 20.7656 8.2734
v 12.6562 21.2500 9.0469
v 12.6562 21.2500 7.2578
v 12.6562 22.0625 9.0469
v 12.6562 22.0625 7.2578
v 12.6562 21.3906 2.9043
v 12.6562 21.3906 0.5327
v 12.6562 21.8594 2.9004
v 12.6562 21.8594 0.5298
v -12.6562 9.8594 9.0469
v -12.6562 10.3438 8.6797
v -12.6562 9.8594 8.2734
v -12.6562 10.3438 9.0469
v -12.6562 9.3750 9.0469
v -12.6562 10.9922 9.0469
v -12.6562 9.3750 7.2617
v -12.6562 10.9922 8.2734
v -12.6562 8.6641 9.0469
v -12.6562 11.3125 9.0469
v -12.6562 8.6641 7.2578
v -12.6562 11.3125 7.2578
v -12.6562 8.1953 8.1797
v -12.6562 12.1172 9.0469
v -12.6562 8.1953 9.0469
v -12.6562 12.1094 7.2539
v -12.6562 7.7305 8.5469
v -12.6562 12.5234 8.1797
v -12.6562 7.7305 9.0469
v -12.6562 12.5234 9.0469
v -12.6562 7.2227 9.0469
v -12.6562 13.0312 8.5469
v -12.6562 7.2227 8.1797
v -12.6562 13.0312 9.0469
v -12.6562 6.7148 9.0469
v -12.6562 13.6641 9.0469
v -12.6562 6.7031 7.2539
v -12.6562 13.6641 8.1797
v -12.6562 5.6133 9.0469
v -12.6562 13.9609 9.0469
v -12.6562 5.6133 7.2500
v -12.6562 6.7031 4.8867
v -12.6562 5.6133 4.8828
v -12.6562 13.9609 7.2578
v -12.6562 14.7812 7.2617
v -12.6562 14.7812 9.0469
v -12.6562 15.1562 8.2734
v -12.6562 15.1562 9.0469
v -12.6562 15.6406 8.6797
v -12.6562 15.6406 9.0469
v -12.6562 16.2969 9.0469
v -12.6562 16.2969 8.2734
v -12.6562 16.6094 9.0469
v -12.6562 16.6094 7.2656
v -12.6562 17.0625 7.2656
v -12.6562 17.0625 9.0469
v 2.7344 -1.8584 9.7344
v -2.7344 -1.8584 9.7344
v -2.7344 -1.8584 6.8281
v 2.7344 -1.8584 6.8281
v 2.2715 -18.7344 8.2109
v -2.2715 -18.7344 6.8359
v -2.2715 -18.7344 8.2109
v 2.2715 -18.7344 6.8359
v 2.2715 -23.4062 8.2109
v 2.2715 -18.7344 6.8359
v 2.2715 -18.7344 8.2109
v 2.2715 -23.4062 6.8359
v -2.2715 -18.7344 6.8359
v -2.2715 -23.4062 6.8359
v -2.2715 -18.7344 8.2109
v -2.2715 -23.4062 8.2109
v 9.6250 25.1094 9.0312
v 9.6250 25.1094 8.0703
v 8.8359 25.1094 7.9141
v 7.1602 25.1094 9.0312
v 8.1094 25.1094 7.4727
v 7.4922 25.1094 6.7695
v 7.1328 25.1094 6.0664
v -6.8633 23.2656 11.5938
v -4.7617 23.2656 11.5938
v -4.7617 23.2656 9.5078
v -6.8633 23.2656 9.5078
v -6.8633 23.2656 9.5078
v -6.8633 19.1562 9.5078
v -6.8633 23.2656 11.5938
v -6.8633 19.1562 12.3516
v -4.7617 23.2656 11.5938
v -4.7617 19.1562 9.5078
v -4.7617 23.2656 9.5078
v -4.7617 19.1562 12.3516
v -1.3105 -4.0078 3.7246
v -12.2109 -4.0078 0.0000
v -1.3105 -4.0078 -0.0000
v -12.2109 -4.0078 6.5352
v -0.8247 -4.0078 4.4219
v 0.0001 -4.0078 6.5352
v 0.0001 -4.0078 4.6914
v 1.3105 -4.0078 3.7246
v 12.2109 -4.0078 -0.0003
v 12.2109 -4.0078 6.5312
v 1.3105 -4.0078 -0.0000
v 0.8252 -4.0078 4.4219
v 0.0001 -4.0078 6.5352
v 0.0001 -4.0078 4.6914
v 6.8633 0.1936 11.5938
v 4.7617 0.1936 11.5938
v 4.7617 0.1936 9.5078
v 6.8633 0.1936 9.5078
v 6.8633 0.1936 9.5078
v 6.8633 4.2891 9.5078
v 6.8633 0.1936 11.5938
v 6.8633 4.2891 12.3516
v 4.7617 0.1936 11.5938
v 4.7617 4.2891 9.5078
v 4.7617 0.1936 9.5078
v 4.7617 4.2891 12.3516
v 11.0000 16.9688 11.5938
v 11.0000 19.0781 9.5078
v 11.0000 19.0781 11.5938
v 11.0000 16.9688 9.5078
v 11.0000 16.9688 11.5938
v 6.9023 16.9688 12.3516
v 6.9023 16.9688 9.5078
v 11.0000 16.9688 9.5078
v 11.0000 19.0781 11.5938
v 6.9023 19.0781 9.5078
v 6.9023 19.0781 12.3516
v 11.0000 19.0781 9.5078
v -11.0000 16.9688 11.5938
v -11.0000 19.0781 11.5938
v -11.0000 19.0781 9.5078
v -11.0000 16.9688 9.5078
v -11.0000 16.9688 9.5078
v -6.9023 16.9688 9.5078
v -11.0000 16.9688 11.5938
v -6.9023 16.9688 12.3516
v -11.0000 19.0781 11.5938
v -6.9023 19.0781 9.5078
v -11.0000 19.0781 9.5078
v -6.9023 19.0781 12.3516
v 6.8633 23.2656 11.5938
v 4.7617 23.2656 9.5078
v 4.7617 23.2656 11.5938
v 6.8633 23.2656 9.5078
v 6.8633 23.2656 11.5938
v 6.8633 19.1562 12.3516
v 6.8633 19.1562 9.5078
v 6.8633 23.2656 9.5078
v 4.7617 23.2656 11.5938
v 4.7617 19.1562 9.5078
v 4.7617 19.1562 12.3516
v 4.7617 23.2656 9.5078
v -12.6562 14.1641 2.9043
v -12.6562 14.6562 0.5356
v -12.6562 14.1641 0.5327
v -12.6562 14.6562 2.9082
v 9.6172 4.4844 14.9844
v 9.6172 4.4844 11.1797
v 9.6172 6.3594 14.9844
v 9.6172 6.3594 11.1797
v 9.6172 6.3594 11.1797
v 8.0938 6.3594 15.2500
v 9.6172 6.3594 14.9844
v 7.0469 6.3594 11.1797
v 7.5703 6.3594 15.8516
v 7.0469 6.3594 15.8516
v 7.0469 4.4844 11.1797
v 7.5703 4.4844 15.8516
v 7.0469 4.4844 15.8516
v 8.0938 4.4844 15.2500
v 9.6172 4.4844 11.1797
v 9.6172 4.4844 14.9844
v -12.6562 11.4531 0.5332
v -12.6562 11.4531 2.9043
v -12.6562 11.9922 2.9004
v -12.6562 11.9922 0.5283
v -4.8633 21.8750 14.9844
v -4.8633 21.8750 11.1797
v -6.7383 21.8750 14.9844
v -6.7383 21.8750 11.1797
v -6.7383 21.8750 11.1797
v -6.7383 20.3594 15.2500
v -6.7383 21.8750 14.9844
v -6.7383 19.3125 11.1797
v -6.7383 19.8281 15.8516
v -6.7383 19.3125 15.8516
v -4.8633 19.3125 11.1797
v -4.8633 19.8281 15.8516
v -4.8633 19.3125 15.8516
v -4.8633 20.3594 15.2500
v -4.8633 21.8750 11.1797
v -4.8633 21.8750 14.9844
v 12.6562 9.8594 9.0469
v 12.6562 10.3438 8.6797
v 12.6562 10.3438 9.0469
v 12.6562 10.9922 9.0469
v 12.6562 9.8594 8.2734
v 12.6562 10.9922 8.2734
v 12.6562 9.3750 9.0469
v 12.6562 11.3125 9.0469
v 12.6562 9.3750 7.2617
v 12.6562 11.3125 7.2578
v 12.6562 8.6641 9.0469
v 12.6562 12.1172 9.0469
v 12.6562 8.6641 7.2578
v 12.6562 12.1094 7.2539
v 12.6562 8.1953 8.1797
v 12.6562 12.5234 8.1797
v 12.6562 8.1953 9.0469
v 12.6562 12.5234 9.0469
v 12.6562 7.7305 8.5469
v 12.6562 13.0312 8.5469
v 12.6562 7.7305 9.0469
v 12.6562 13.0312 9.0469
v 12.6562 7.2227 9.0469
v 12.6562 13.6641 9.0469
v 12.6562 7.2227 8.1797
v 12.6562 13.6641 8.1797
v 12.6562 6.7148 9.0469
v 12.6562 13.9609 9.0469
v 12.6562 6.7031 7.2539
v 12.6562 13.9609 7.2578
v 12.6562 5.6133 9.0469
v 12.6562 14.7812 7.2617
v 12.6562 5.6133 7.2500
v 12.6562 6.7031 4.8867
v 12.6562 5.6133 4.8828
v 12.6562 14.7812 9.0469
v 12.6562 15.1562 8.2734
v 12.6562 15.1562 9.0469
v 12.6562 15.6406 8.6797
v 12.6562 15.6406 9.0469
v 12.6562 16.2969 9.0469
v 12.6562 16.2969 8.2734
v 12.6562 16.6094 9.0469
v 12.6562 16.6094 7.2656
v 12.6562 17.0625 7.2656
v 12.6562 17.0625 9.0469
v -9.6250 25.1094 9.0312
v -9.6250 25.1094 8.0703
v -8.8359 25.1094 7.9141
v -7.1602 25.1094 9.0312
v -8.1094 25.1094 7.4727
v -7.4922 25.1094 6.7695
v -7.1328 25.1094 6.0664
v -15.8594 -7.6484 5.0859
v -15.8594 -7.6484 4.1680
v -15.8594 -6.6445 5.0859
v -15.8594 -9.6953 4.1680
v -15.8594 -9.6953 0.8726
v -15.8594 -6.6992 0.8726
v -15.8594 -5.6406 4.1680
v -15.8594 -5.6406 5.0859
v -17.9688 -9.7031 5.0859
v -15.8594 -7.6484 4.1680
v -15.8594 -7.6484 5.0859
v -17.9688 -9.7031 4.1680
v -22.0938 -7.6484 4.1680
v -19.9844 -9.6953 4.1680
v -22.0938 -7.6484 5.0859
v -19.9844 -9.6953 5.0859
v -22.0938 -5.6406 5.0859
v -22.0938 -5.6406 4.1680
v -22.0938 -6.6445 5.0859
v -22.0938 -6.6992 0.8726
v -22.0938 -7.6484 4.1680
v -22.0938 -7.6484 5.0859
v -22.0938 -9.6953 0.8726
v -22.0938 -9.6953 4.1680
v -15.9375 -9.6953 4.1680
v -17.9688 -9.7031 4.1680
v -15.9375 -9.6953 0.8726
v -18.9375 -9.6953 0.8726
v -18.9844 -9.6953 5.0859
v -17.9688 -9.7031 5.0859
v -19.9844 -9.6953 4.1680
v -19.9844 -9.6953 5.0859
v -21.9375 -9.6953 0.8726
v -21.9375 -9.6953 4.1680
v -6.7383 1.5732 14.9844
v -4.8633 1.5732 11.1797
v -4.8633 1.5732 14.9844
v -6.7383 1.5732 11.1797
v -6.7383 3.0977 15.2500
v -6.7383 1.5732 11.1797
v -6.7383 1.5732 14.9844
v -6.7383 4.1484 11.1797
v -6.7383 3.6230 15.8516
v -6.7383 4.1484 15.8516
v -4.8633 4.1484 11.1797
v -4.8633 4.1484 15.8516
v -4.8633 3.6230 15.8516
v -4.8633 3.0977 15.2500
v -4.8633 1.5732 11.1797
v -4.8633 1.5732 14.9844
v 1.7822 1.1729 12.6719
v 1.7822 1.1729 11.0234
v 2.5840 1.6074 12.6719
v 2.5859 1.6074 11.0234
v 0.9087 0.9043 11.0234
v 3.2871 2.1934 12.6719
v 0.9087 0.9048 12.6719
v 0.0000 0.8140 11.0234
v 0.0000 0.8140 12.6719
v 3.2871 2.1934 11.0234
v 3.8594 2.9043 11.0234
v 3.8594 2.9043 12.6719
v 4.2773 3.7148 11.0234
v 4.2773 3.7148 12.6719
v 4.5312 4.5938 11.0234
v 4.5312 4.5938 12.6719
v -2.5840 1.6074 12.6719
v -1.7822 1.1729 11.0234
v -1.7822 1.1729 12.6719
v -0.9087 0.9043 11.0234
v -2.5859 1.6074 11.0234
v -0.9087 0.9048 12.6719
v 0.0000 0.8140 11.0234
v 0.0000 0.8140 11.0234
v 0.0000 0.8140 12.6719
v -3.2871 2.1934 12.6719
v -3.2871 2.1934 11.0234
v -3.8594 2.9043 11.0234
v -3.8594 2.9043 12.6719
v -4.2773 3.7148 11.0234
v -4.2773 3.7148 12.6719
v -4.5312 4.5938 11.0234
v -4.5312 4.5938 12.6719
v 0.7988 24.6562 4.3906
v 0.0012 24.6562 9.2422
v 0.0012 24.6562 4.6641
v 0.0012 24.6562 9.2422
v -0.7964 24.6562 4.3906
v 0.0012 24.6562 4.6641
v -12.6562 17.5781 9.0469
v -12.6562 19.3125 7.4766
v -12.6562 17.5781 7.2578
v -12.6562 19.3125 9.0469
v -12.6562 19.7969 8.2734
v -12.6562 19.7969 9.0469
v -12.6562 20.2812 8.6797
v -12.6562 20.2812 9.0469
v -12.6562 20.7656 9.0469
v -12.6562 20.7656 8.2734
v -12.6562 21.2500 9.0469
v -12.6562 21.2500 7.2578
v -12.6562 22.0625 9.0469
v -12.6562 22.0625 7.2578
v -12.6562 4.1367 9.0469
v -12.6562 5.8789 9.0469
v -12.6562 5.8789 7.2578
v -12.6562 4.1367 7.2578
v -12.6562 3.6504 8.2734
v -12.6562 3.6504 9.0469
v -12.6562 3.1660 8.6797
v -12.6562 3.1660 9.0469
v -12.6562 2.6816 9.0469
v -12.6562 2.6816 8.2734
v -12.6562 2.1992 9.0469
v -12.6562 2.1992 7.2578
v -12.6562 1.3945 9.0469
v -12.6562 1.3945 7.2578
v -12.6562 0.9282 8.1797
v -12.6562 0.9282 9.0469
v 5.7617 -3.6094 11.4766
v 6.4375 -3.4766 6.8281
v 6.4375 -3.4766 11.4766
v 7.0117 -3.0938 11.4766
v 5.7617 -3.6094 6.8281
v 7.0117 -3.0938 6.8281
v 5.0898 -3.4766 6.8281
v 7.3828 -2.5215 11.4766
v 5.0898 -3.4766 11.4766
v 7.3828 -2.5215 6.8281
v 4.5156 -3.0938 6.8281
v 7.5195 -1.8516 11.4766
v 4.5156 -3.0938 11.4766
v 7.5195 -1.8516 6.8281
v 4.1445 -2.5215 11.4766
v 7.3828 -1.1807 6.8281
v 4.1445 -2.5215 6.8281
v 7.3828 -1.1807 11.4766
v 4.0078 -1.8516 11.4766
v 7.0117 -0.6079 11.4766
v 4.0078 -1.8516 6.8281
v 7.0117 -0.6079 6.8281
v 4.1445 -1.1807 6.8281
v 6.4375 -0.2258 11.4766
v 4.1445 -1.1807 11.4766
v 6.4375 -0.2258 6.8281
v 5.7617 -0.0921 11.4766
v 5.7617 -0.0921 6.8281
v 4.5156 -0.6079 11.4766
v 4.5156 -0.6079 6.8281
v 5.0898 -0.2258 6.8281
v 5.0898 -0.2258 11.4766
v 5.7617 -0.0921 6.8281
v 5.7617 -0.0921 11.4766
v -12.6562 8.8047 7.2578
v -12.6562 9.3125 4.8906
v -12.6562 8.8047 4.8867
v -12.6562 9.3125 7.2617
v 13.1719 17.0312 10.5312
v 13.1719 18.0312 0.6206
v 13.1719 18.0312 11.1641
v 13.1719 17.0312 0.6206
v 13.1719 19.0156 10.5312
v 13.1719 19.0156 0.6206
v 10.7656 17.0312 10.5312
v 10.7656 17.0312 0.6206
v 13.1719 17.0312 10.5312
v 13.1719 17.0312 0.6206
v 13.1719 19.0156 10.5312
v 13.1719 19.0156 0.6206
v 10.7656 19.0156 10.5312
v 10.7656 19.0156 0.6206
v 12.6562 11.4531 2.9043
v 12.6562 11.4531 0.5332
v 12.6562 11.9922 2.9004
v 12.6562 11.9922 0.5283
v -13.1719 6.4219 10.5312
v -13.1719 5.4297 0.6206
v -13.1719 5.4297 11.1641
v -13.1719 6.4219 0.6206
v -13.1719 4.4375 10.5312
v -13.1719 4.4375 0.6206
v -10.7656 6.4219 10.5312
v -10.7656 6.4219 0.6206
v -13.1719 6.4219 10.5312
v -13.1719 6.4219 0.6206
v -13.1719 4.4375 10.5312
v -13.1719 4.4375 0.6206
v -10.7656 4.4375 10.5312
v -10.7656 4.4375 0.6206
v 12.6562 8.7812 2.9043
v 12.6562 9.2969 0.5356
v 12.6562 9.2969 2.9082
v 12.6562 8.7812 0.5327
v -15.2266 1.2090 4.7305
v -15.2344 0.8804 3.8809
v -15.2344 1.2090 3.5352
v -15.2266 3.7012 4.7305
v -15.2656 3.7012 0.8711
v -15.2656 1.2090 0.8706
v -15.2266 1.2090 4.7305
v -17.7344 3.7012 5.9102
v -15.2188 1.2100 5.9062
v -17.7500 3.7012 4.7305
v -20.2031 3.7012 5.9062
v -17.7344 3.7012 5.9102
v -17.7500 3.7012 4.7305
v -20.2031 3.7012 4.7305
v -15.2656 3.7012 0.8711
v -15.2266 3.7012 4.7305
v -22.7656 3.6992 0.8726
v -22.7656 3.6992 4.7305
v -22.7656 1.2090 4.7305
v -22.7656 0.8804 3.8828
v -22.7656 1.2090 3.5371
v -22.7656 3.6992 4.7305
v -22.7656 3.6992 0.8726
v -22.7656 1.2090 0.8726
v -20.2031 3.7012 4.7305
v -22.7656 1.2100 5.9062
v -20.2031 3.7012 5.9062
v -22.7656 1.2090 4.7305
v -22.7656 1.2090 3.5371
v -15.2656 1.2090 0.8706
v -15.2344 1.2090 3.5352
v -22.7656 1.2090 0.8726
v -22.7656 0.8804 3.8828
v -15.2344 0.8804 3.8809
v 12.6562 19.3125 4.6914
v 12.6562 17.5781 4.6914
v 12.6562 17.5781 2.9121
v 12.6562 19.3125 2.9082
v 12.6562 19.7969 3.9180
v 12.6562 19.7969 4.6914
v 12.6562 20.2812 4.3203
v 12.6562 20.2812 4.6914
v 12.6562 20.7656 4.6914
v 12.6562 20.7656 3.9160
v 12.6562 21.2500 4.6914
v 12.6562 21.2500 2.9043
v 12.6562 22.0625 4.6914
v 12.6562 22.0625 2.9004
v 12.6562 4.1367 4.6914
v 12.6562 5.8789 2.9121
v 12.6562 5.8789 4.6914
v 12.6562 4.1367 2.9082
v 12.6562 3.6504 3.9180
v 12.6562 3.6504 4.6914
v 12.6562 3.1660 4.3203
v 12.6562 3.1660 4.6914
v 12.6562 2.6816 4.6914
v 12.6562 2.6816 3.9160
v 12.6562 2.1992 4.6914
v 12.6562 2.1992 2.9043
v 12.6562 1.3945 4.6914
v 12.6562 1.3945 2.9004
v 12.6562 0.9282 3.8262
v 12.6562 0.9282 4.6914
v 10.5547 13.5078 12.6719
v 10.5547 13.5078 11.0234
v 10.1172 14.3125 12.6719
v 10.1172 14.3125 11.0234
v 10.8281 12.6328 11.0234
v 9.5391 15.0156 12.6719
v 10.8281 12.6328 12.6719
v 10.9141 11.7266 11.0234
v 10.9141 11.7266 12.6719
v 9.5391 15.0156 11.0234
v 8.8203 15.5859 11.0234
v 8.8203 15.5859 12.6719
v 8.0156 16.0000 11.0234
v 8.0156 16.0000 12.6719
v 7.1328 16.2656 11.0234
v 7.1328 16.2656 12.6719
v 6.7266 16.7656 11.0234
v 6.7266 16.7656 12.6719
v 10.1172 9.1406 12.6719
v 10.5547 9.9453 11.0234
v 10.5547 9.9453 12.6719
v 10.8281 10.8203 11.0234
v 10.1172 9.1406 11.0234
v 10.8281 10.8203 12.6719
v 10.9141 11.7266 11.0234
v 10.9141 11.7266 12.6719
v 9.5391 8.4375 12.6719
v 9.5391 8.4375 11.0234
v 8.8203 7.8672 11.0234
v 8.8203 7.8672 12.6719
v 8.0156 7.4492 11.0234
v 8.0156 7.4492 12.6719
v 7.1328 7.1953 11.0234
v 7.1328 7.1953 12.6719
v 6.7266 6.6875 11.0234
v 6.7266 6.6875 12.6719
v -9.6172 18.9688 14.9844
v -9.6172 18.9688 11.1797
v -9.6172 17.0938 14.9844
v -9.6172 17.0938 11.1797
v -9.6172 17.0938 11.1797
v -8.0938 17.0938 15.2500
v -9.6172 17.0938 14.9844
v -7.0469 17.0938 11.1797
v -7.5703 17.0938 15.8516
v -7.0469 17.0938 15.8516
v -7.0469 18.9688 11.1797
v -7.5703 18.9688 15.8516
v -7.0469 18.9688 15.8516
v -8.0938 18.9688 15.2500
v -9.6172 18.9688 11.1797
v -9.6172 18.9688 14.9844
v 12.6562 8.8047 7.2578
v 12.6562 9.3125 4.8906
v 12.6562 9.3125 7.2617
v 12.6562 8.8047 4.8867
v 9.6172 17.0938 14.9844
v 9.6172 18.9688 11.1797
v 9.6172 18.9688 14.9844
v 9.6172 17.0938 11.1797
v 8.0938 17.0938 15.2500
v 9.6172 17.0938 11.1797
v 9.6172 17.0938 14.9844
v 7.0469 17.0938 11.1797
v 7.5703 17.0938 15.8516
v 7.0469 17.0938 15.8516
v 7.0469 18.9688 11.1797
v 7.0469 18.9688 15.8516
v 7.5703 18.9688 15.8516
v 8.0938 18.9688 15.2500
v 9.6172 18.9688 11.1797
v 9.6172 18.9688 14.9844
v -5.7617 27.0625 11.4766
v -6.4375 26.9375 0.5054
v -6.4375 26.9375 11.4766
v -5.7617 27.0625 0.5054
v -7.0117 26.5469 0.5054
v -5.0898 26.9375 11.4766
v -7.0117 26.5469 11.4766
v -5.0898 26.9375 0.5054
v -7.3828 25.9688 11.4766
v -4.5156 26.5469 0.5054
v -7.3828 25.9688 0.5054
v -4.5156 26.5469 11.4766
v -7.5195 25.3125 0.5054
v -4.1445 25.9688 11.4766
v -7.5195 25.3125 11.4766
v -4.1445 25.9688 0.5054
v -7.3828 24.6406 11.4766
v -4.0078 25.3125 0.5054
v -7.3828 24.6406 0.5054
v -4.0078 25.3125 11.4766
v -7.0117 24.0625 8.8125
v -4.1445 24.6406 11.4766
v -7.0117 24.0625 11.4766
v -4.1445 24.6406 0.5054
v -6.4375 23.6719 11.4766
v -4.5156 24.0625 8.8125
v -6.4375 23.6719 8.8125
v -5.7617 23.5469 11.4766
v -5.7617 23.5469 8.8125
v -4.5156 24.0625 11.4766
v -5.0898 23.6719 8.8125
v -5.0898 23.6719 11.4766
v -5.7617 23.5469 8.8125
v -5.7617 23.5469 11.4766
v -1.7822 22.2812 12.6719
v -1.7822 22.2812 11.0234
v -2.5840 21.8438 12.6719
v -2.5859 21.8438 11.0234
v -0.9087 22.5469 11.0234
v -3.2871 21.2656 12.6719
v -0.9087 22.5469 12.6719
v -0.0000 22.6406 11.0234
v -0.0000 22.6406 12.6719
v -3.2871 21.2656 11.0234
v -3.8594 20.5469 11.0234
v -3.8594 20.5469 12.6719
v -4.2773 19.7344 11.0234
v -4.2773 19.7344 12.6719
v -4.5312 18.8594 11.0234
v -4.5312 18.8594 12.6719
v 2.5840 21.8438 12.6719
v 1.7822 22.2812 11.0234
v 1.7822 22.2812 12.6719
v 0.9087 22.5469 11.0234
v 2.5859 21.8438 11.0234
v 0.9087 22.5469 12.6719
v -0.0000 22.6406 11.0234
v -0.0000 22.6406 11.0234
v -0.0000 22.6406 12.6719
v 3.2871 21.2656 12.6719
v 3.2871 21.2656 11.0234
v 3.8594 20.5469 11.0234
v 3.8594 20.5469 12.6719
v 4.2773 19.7344 11.0234
v 4.2773 19.7344 12.6719
v 4.5312 18.8594 11.0234
v 4.5312 18.8594 12.6719
v -12.6562 8.7812 2.9043
v -12.6562 9.2969 0.5356
v -12.6562 8.7812 0.5327
v -12.6562 9.2969 2.9082
v -3.0469 -22.9531 9.8672
v -3.0469 -22.9531 -0.0000
v -7.2070 -22.9531 9.8672
v -7.2070 -22.9531 -0.0000
v -7.2070 -24.9531 -0.0000
v -7.2070 -24.9531 10.1875
v -7.2070 -22.9531 9.8672
v -7.2070 -22.9531 -0.0000
v -7.2070 -26.9531 9.8672
v -7.2070 -26.9531 -0.0000
v -7.2070 -26.9531 9.8672
v -2.9746 -26.9531 -0.0000
v -2.9746 -26.9531 9.8672
v -7.2070 -26.9531 -0.0000
v 13.1719 6.4219 10.5312
v 13.1719 5.4297 0.6206
v 13.1719 6.4219 0.6206
v 13.1719 5.4297 11.1641
v 13.1719 4.4375 10.5312
v 13.1719 4.4375 0.6206
v 10.7656 6.4219 0.6206
v 10.7656 6.4219 10.5312
v 13.1719 6.4219 10.5312
v 13.1719 6.4219 0.6206
v 10.7656 4.4375 10.5312
v 13.1719 4.4375 0.6206
v 13.1719 4.4375 10.5312
v 10.7656 4.4375 0.6206
v 12.6562 9.8594 4.6953
v 12.6562 10.3438 4.3242
v 12.6562 10.3438 4.6953
v 12.6562 10.9922 4.6953
v 12.6562 9.8594 3.9199
v 12.6562 10.9922 3.9219
v 12.6562 9.3750 4.6953
v 12.6562 11.3125 4.6953
v 12.6562 9.3750 2.9082
v 12.6562 11.3125 2.9043
v 12.6562 8.6641 4.6953
v 12.6562 12.1172 4.6953
v 12.6562 8.6641 2.9043
v 12.6562 12.1094 2.9004
v 12.6562 8.1953 3.8281
v 12.6562 12.5234 3.8262
v 12.6562 8.1953 4.6953
v 12.6562 12.5234 4.6953
v 12.6562 7.7305 4.1953
v 12.6562 13.0312 4.1953
v 12.6562 7.7305 4.6953
v 12.6562 13.0312 4.6953
v 12.6562 7.2227 4.6953
v 12.6562 13.6641 4.6953
v 12.6562 7.2227 3.8262
v 12.6562 13.6641 3.8281
v 12.6562 6.7148 4.6953
v 12.6562 13.9609 4.6953
v 12.6562 6.7031 2.9004
v 12.6562 13.9609 2.9043
v 12.6562 5.6133 4.6953
v 12.6562 14.7812 2.9082
v 12.6562 5.6133 2.8984
v 12.6562 6.7031 0.5327
v 12.6562 5.6133 0.5312
v 12.6562 14.7812 4.6953
v 12.6562 15.1562 3.9199
v 12.6562 15.1562 4.6953
v 12.6562 15.6406 4.3242
v 12.6562 15.6406 4.6953
v 12.6562 16.2969 4.6953
v 12.6562 16.2969 3.9219
v 12.6562 16.6094 4.6953
v 12.6562 16.6094 2.9121
v 12.6562 17.0781 2.9121
v 12.6562 17.0781 4.6953
v 12.6562 1.5840 2.9004
v 12.6562 2.0547 0.5327
v 12.6562 2.0547 2.9043
v 12.6562 1.5840 0.5298
v 12.6562 21.3906 7.2578
v 12.6562 21.3906 4.8867
v 12.6562 21.8594 7.2578
v 12.6562 21.8594 4.8867
v -12.6562 1.5840 2.9004
v -12.6562 2.0547 0.5327
v -12.6562 1.5840 0.5298
v -12.6562 2.0547 2.9043
v -1.3398 -26.4531 4.6172
v -1.5664 -22.9531 4.3242
v -1.3398 -22.9531 4.6172
v -1.5664 -26.4531 4.3242
v -0.9512 -22.9531 4.9141
v -0.9507 -26.4531 4.9102
v -0.4951 -22.9531 5.0977
v -0.4949 -26.4531 5.0977
v 0.9507 -26.4531 4.9102
v 0.4951 -22.9531 5.0977
v 0.9512 -22.9531 4.9141
v 0.4949 -26.4531 5.0977
v 1.3398 -26.4531 4.6172
v 1.3398 -22.9531 4.6172
v 1.5664 -22.9531 4.3242
v 1.5664 -26.4531 4.3242
v -3.0469 -28.0781 -0.0000
v -3.0469 -28.0781 11.9844
v -3.0469 -26.9531 9.8672
v -3.0469 -26.9531 -0.0000
v -3.0469 -22.9531 11.9844
v -3.0469 -22.9531 9.8672
v -1.3350 -26.4531 6.4336
v -1.3350 -28.0781 6.4336
v -1.5654 -28.0781 5.8789
v -1.5654 -26.4531 5.8789
v -1.5664 -26.4531 4.3242
v -1.5693 -28.0781 -0.0000
v -1.5801 -22.9531 -0.0000
v -1.5664 -22.9531 4.3242
v -1.3350 -28.0781 6.4336
v -0.8428 -26.4531 6.5664
v -0.8428 -28.0781 6.5664
v -1.3350 -26.4531 6.4336
v -0.6870 -26.4531 7.1523
v -0.6870 -28.0781 7.1523
v -0.8428 -28.0781 6.5664
v -0.8428 -26.4531 6.5664
v 3.0469 -26.9531 9.8672
v 3.0469 -22.9531 11.9844
v 3.0469 -28.0781 11.9844
v 3.0469 -22.9531 9.8672
v 3.0469 -28.0781 -0.0000
v 3.0469 -26.9531 -0.0000
v 0.1581 -26.7969 8.5078
v 0.3438 -28.0781 7.2344
v 0.1581 -28.0781 8.5078
v 0.3438 -26.4531 7.2344
v 0.8428 -28.0781 6.5664
v 1.3350 -26.4531 6.4336
v 1.3350 -28.0781 6.4336
v 0.8428 -26.4531 6.5664
v 1.3350 -28.0781 6.4336
v 1.3350 -26.4531 6.4336
v 1.5654 -26.4531 5.8789
v 1.5654 -28.0781 5.8789
v 1.5664 -26.4531 4.3242
v 1.5693 -28.0781 -0.0000
v 1.5674 -22.9531 -0.0000
v 1.5664 -22.9531 4.3242
v -2.2773 -22.9531 11.7500
v -3.0469 -22.9531 -0.0000
v -3.0469 -22.9531 9.8672
v -3.0469 -22.9531 11.9844
v -1.5664 -22.9531 4.3242
v -1.5801 -22.9531 -0.0000
v -1.5410 -22.9531 11.7344
v -1.3398 -22.9531 4.6172
v -0.9512 -22.9531 4.9141
v -0.4951 -22.9531 5.0977
v 0.0000 -22.9531 5.1602
v 0.0125 -22.9531 12.3438
v 1.5654 -22.9531 11.7344
v 0.4951 -22.9531 5.0977
v 0.9512 -22.9531 4.9141
v 1.3398 -22.9531 4.6172
v 1.5664 -22.9531 4.3242
v 2.2773 -22.9531 11.7500
v 3.0469 -22.9531 -0.0000
v 1.5674 -22.9531 -0.0000
v 3.0469 -22.9531 9.8672
v 3.0469 -22.9531 11.9844
v -1.3398 -26.4531 4.6172
v -1.5654 -26.4531 5.8789
v -1.5664 -26.4531 4.3242
v -0.9507 -26.4531 4.9102
v -0.4949 -26.4531 5.0977
v -1.3350 -26.4531 6.4336
v -0.8428 -26.4531 6.5664
v 0.0000 -26.4531 5.1602
v 0.0000 -26.4531 6.7031
v 0.8428 -26.4531 6.5664
v 0.4949 -26.4531 5.0977
v 1.3350 -26.4531 6.4336
v 1.5654 -26.4531 5.8789
v 0.9507 -26.4531 4.9102
v 1.3398 -26.4531 4.6172
v 1.5664 -26.4531 4.3242
v -0.6943 -28.0781 11.9297
v 0.0000 -28.0781 8.5078
v -0.0000 -28.0781 12.3359
v 0.6943 -28.0781 11.9297
v -0.1581 -28.0781 8.5078
v 0.1581 -28.0781 8.5078
v -1.4736 -28.0781 11.7344
v 1.4736 -28.0781 11.7344
v -0.3438 -28.0781 7.2344
v -0.6870 -28.0781 7.1523
v -0.8428 -28.0781 6.5664
v -1.3350 -28.0781 6.4336
v -2.2773 -28.0781 11.7500
v -1.5654 -28.0781 5.8789
v -3.0469 -28.0781 11.9844
v -3.0469 -28.0781 -0.0000
v -1.5693 -28.0781 -0.0000
v 0.3438 -28.0781 7.2344
v 0.6870 -28.0781 7.1523
v 0.8428 -28.0781 6.5664
v 1.3350 -28.0781 6.4336
v 2.2773 -28.0781 11.7500
v 1.5654 -28.0781 5.8789
v 3.0469 -28.0781 11.9844
v 3.0469 -28.0781 -0.0000
v 1.5693 -28.0781 -0.0000
v -0.1581 -28.0781 8.5078
v -0.3438 -28.0781 7.2344
v -0.1581 -26.7969 8.5078
v -0.3438 -26.4531 7.2344
v 0.6870 -28.0781 7.1523
v 0.3438 -26.4531 7.2344
v 0.6870 -26.4531 7.1523
v 0.3438 -28.0781 7.2344
v -0.6870 -28.0781 7.1523
v -0.3438 -26.4531 7.2344
v -0.3438 -28.0781 7.2344
v -0.6870 -26.4531 7.1523
v 0.6870 -28.0781 7.1523
v 0.6870 -26.4531 7.1523
v 0.8428 -26.4531 6.5664
v 0.8428 -28.0781 6.5664
v -10.5547 9.9453 12.6719
v -10.5547 9.9453 11.0234
v -10.1172 9.1406 12.6719
v -10.1172 9.1406 11.0234
v -10.8281 10.8203 11.0234
v -9.5391 8.4375 12.6719
v -10.8281 10.8203 12.6719
v -10.9141 11.7266 11.0234
v -10.9141 11.7266 12.6719
v -9.5391 8.4375 11.0234
v -8.8203 7.8672 11.0234
v -8.8203 7.8672 12.6719
v -8.0156 7.4492 11.0234
v -8.0156 7.4492 12.6719
v -7.1328 7.1953 11.0234
v -7.1328 7.1953 12.6719
v -6.7266 6.6875 11.0234
v -6.7266 6.6875 12.6719
v -10.1172 14.3125 12.6719
v -10.5547 13.5078 11.0234
v -10.5547 13.5078 12.6719
v -10.8281 12.6328 11.0234
v -10.1172 14.3125 11.0234
v -10.8281 12.6328 12.6719
v -10.9141 11.7266 11.0234
v -10.9141 11.7266 11.0234
v -10.9141 11.7266 12.6719
v -9.5391 15.0156 12.6719
v -9.5391 15.0156 11.0234
v -8.8203 15.5859 11.0234
v -8.8203 15.5859 12.6719
v -8.0156 16.0000 11.0234
v -8.0156 16.0000 12.6719
v -7.1328 16.2656 11.0234
v -7.1328 16.2656 12.6719
v -6.7266 16.7656 11.0234
v -6.7266 16.7656 12.6719
v -12.6562 4.1367 4.6914
v -12.6562 5.8789 4.6914
v -12.6562 5.8789 2.9121
v -12.6562 4.1367 2.9082
v -12.6562 3.6504 3.9180
v -12.6562 3.6504 4.6914
v -12.6562 3.1660 4.3203
v -12.6562 3.1660 4.6914
v -12.6562 2.6816 4.6914
v -12.6562 2.6816 3.9160
v -12.6562 2.1992 4.6914
v -12.6562 2.1992 2.9043
v -12.6562 1.3945 4.6914
v -12.6562 1.3945 2.9004
v -12.6562 0.9282 3.8262
v -12.6562 0.9282 4.6914
v -1.4609 24.5000 3.9199
v 1.4561 24.5000 0.3872
v -1.4609 24.5000 0.3872
v 1.4639 24.5000 3.9199
v 0.9268 24.5000 4.6250
v -0.9238 24.5000 4.6250
v 0.0015 24.5000 4.8984
v -12.6562 9.8594 4.6953
v -12.6562 10.3438 4.3242
v -12.6562 9.8594 3.9199
v -12.6562 10.3438 4.6953
v -12.6562 9.3750 4.6953
v -12.6562 10.9922 4.6953
v -12.6562 9.3750 2.9082
v -12.6562 10.9922 3.9219
v -12.6562 8.6641 4.6953
v -12.6562 11.3125 4.6953
v -12.6562 8.6641 2.9043
v -12.6562 11.3125 2.9043
v -12.6562 8.1953 3.8281
v -12.6562 12.1172 4.6953
v -12.6562 8.1953 4.6953
v -12.6562 12.1094 2.9004
v -12.6562 7.7305 4.1953
v -12.6562 12.5234 3.8262
v -12.6562 7.7305 4.6953
v -12.6562 12.5234 4.6953
v -12.6562 7.2227 4.6953
v -12.6562 13.0312 4.1953
v -12.6562 7.2227 3.8262
v -12.6562 13.0312 4.6953
v -12.6562 6.7148 4.6953
v -12.6562 13.6641 4.6953
v -12.6562 6.7031 2.9004
v -12.6562 13.6641 3.8281
v -12.6562 5.6133 4.6953
v -12.6562 13.9609 4.6953
v -12.6562 5.6133 2.8984
v -12.6562 6.7031 0.5327
v -12.6562 5.6133 0.5312
v -12.6562 13.9609 2.9043
v -12.6562 14.7812 2.9082
v -12.6562 14.7812 4.6953
v -12.6562 15.1562 3.9199
v -12.6562 15.1562 4.6953
v -12.6562 15.6406 4.3242
v -12.6562 15.6406 4.6953
v -12.6562 16.2969 4.6953
v -12.6562 16.2969 3.9219
v -12.6562 16.6094 4.6953
v -12.6562 16.6094 2.9121
v -12.6562 17.0781 2.9121
v -12.6562 17.0781 4.6953
v -12.6562 1.5430 7.2578
v -12.6562 2.1230 4.8867
v -12.6562 1.5430 4.8867
v -12.6562 2.1230 7.2578
v -6.4766 3.7578 18.0938
v -5.8008 3.6230 8.7500
v -5.8008 3.6230 18.0938
v -5.1250 3.7578 8.7500
v -6.4766 3.7578 8.7500
v -5.1250 3.7578 18.0938
v -7.0547 4.1406 18.0938
v -4.5508 4.1406 8.7500
v -7.0547 4.1406 8.7500
v -4.5508 4.1406 18.0938
v -7.4297 4.7188 18.0938
v -4.1758 4.7188 14.1250
v -7.4297 4.7188 8.7500
v -4.1758 4.7188 18.0938
v -7.5664 5.3906 8.7500
v -4.0391 5.3906 18.0938
v -7.5664 5.3906 18.0938
v -4.0391 5.3906 14.1250
v -7.4297 6.0625 18.0938
v -4.1758 6.0625 18.0938
v -7.4297 6.0625 8.7500
v -4.1758 6.0625 14.1250
v -7.0547 6.6406 8.7500
v -4.5508 6.6406 14.1250
v -7.0547 6.6406 18.0938
v -4.5508 6.6406 18.0938
v -6.4766 7.0234 14.1250
v -5.1250 7.0234 14.1250
v -6.4766 7.0234 18.0938
v -5.8008 7.1562 18.0938
v -5.8008 7.1562 14.1250
v -5.1250 7.0234 18.0938
v -5.8008 7.1562 14.1250
v -5.8008 7.1562 18.0938
v 1.4619 -3.9160 3.8691
v -1.4541 -3.9160 0.3367
v 1.4619 -3.9160 0.3367
v -1.4619 -3.9160 3.8691
v -0.9253 -3.9160 4.5742
v 0.9253 -3.9160 4.5742
v 0.0000 -3.9160 4.8477
v 1.9072 25.1094 7.8398
v 2.2129 25.1094 9.8125
v 2.2285 25.1094 7.1875
v 1.3535 25.1094 8.5000
v 0.7046 25.1094 8.9141
v 0.0014 25.1094 9.8203
v -0.0000 25.1094 9.0547
v -0.7051 25.1094 8.9062
v -2.2070 25.1094 9.8203
v -1.3545 25.1094 8.4922
v -1.9082 25.1094 7.8359
v -2.2305 25.1094 7.1836
v -12.6562 14.1016 7.2578
v -12.6562 14.6719 4.8906
v -12.6562 14.1016 4.8867
v -12.6562 14.6719 7.2617
v 6.4375 26.9375 11.4766
v 5.7617 27.0625 0.5054
v 5.7617 27.0625 11.4766
v 5.0898 26.9375 11.4766
v 6.4375 26.9375 0.5054
v 5.0898 26.9375 0.5054
v 7.0117 26.5469 0.5054
v 4.5156 26.5469 11.4766
v 7.0117 26.5469 11.4766
v 4.5156 26.5469 0.5054
v 7.3828 25.9688 0.5054
v 4.1445 25.9688 0.5054
v 7.3828 25.9688 11.4766
v 4.1445 25.9688 11.4766
v 7.5195 25.3125 0.5054
v 4.0078 25.3125 0.5054
v 7.5195 25.3125 11.4766
v 4.0078 25.3125 11.4766
v 7.3828 24.6406 0.5054
v 4.1445 24.6406 0.5054
v 7.3828 24.6406 11.4766
v 4.1445 24.6406 11.4766
v 7.0117 24.0625 8.8125
v 4.5156 24.0625 8.8125
v 7.0117 24.0625 11.4766
v 4.5156 24.0625 11.4766
v 6.4375 23.6719 11.4766
v 5.0898 23.6875 8.8125
v 6.4375 23.6875 8.8125
v 5.7617 23.5469 11.4766
v 5.7617 23.5469 8.8125
v 5.0898 23.6719 11.4766
v 5.7617 23.5469 8.8125
v 5.7617 23.5469 11.4766
v 5.8008 3.6230 18.0938
v 5.8008 3.6230 8.7500
v 6.4766 3.7578 18.0938
v 6.4766 3.7578 8.7500
v 5.1250 3.7578 8.7500
v 7.0547 4.1406 18.0938
v 5.1250 3.7578 18.0938
v 7.0547 4.1406 8.7500
v 4.5508 4.1406 8.7500
v 7.4297 4.7188 8.7500
v 4.5508 4.1406 18.0938
v 7.4297 4.7188 18.0938
v 4.1758 4.7188 14.1250
v 7.5664 5.3906 8.7500
v 4.1758 4.7188 18.0938
v 7.5664 5.3906 18.0938
v 4.0391 5.3906 18.0938
v 7.4297 6.0625 18.0938
v 4.0391 5.3906 14.1250
v 7.4297 6.0625 8.7500
v 4.1758 6.0625 18.0938
v 7.0547 6.6406 18.0938
v 4.1758 6.0625 14.1250
v 7.0547 6.6406 8.7500
v 4.5508 6.6406 18.0938
v 6.4766 7.0234 14.1250
v 4.5508 6.6406 14.1250
v 6.4766 7.0234 18.0938
v 5.8008 7.1562 18.0938
v 5.8008 7.1562 14.1250
v 5.1250 7.0234 14.1250
v 5.1250 7.0234 18.0938
v 5.8008 7.1562 14.1250
v 5.8008 7.1562 18.0938
v 4.8633 1.5732 14.9844
v 4.8633 1.5732 11.1797
v 6.7383 1.5732 14.9844
v 6.7383 1.5732 11.1797
v 6.7383 1.5732 11.1797
v 6.7383 3.0977 15.2500
v 6.7383 1.5732 14.9844
v 6.7383 4.1484 11.1797
v 6.7383 3.6230 15.8516
v 6.7383 4.1484 15.8516
v 4.8633 4.1484 11.1797
v 4.8633 3.6230 15.8516
v 4.8633 4.1484 15.8516
v 4.8633 3.0977 15.2500
v 4.8633 1.5732 11.1797
v 4.8633 1.5732 14.9844
v 0.0000 17.6562 18.1562
v 0.0000 17.6562 16.3750
v -1.0732 17.5625 18.1562
v -1.0732 17.5625 16.3750
v -2.1328 17.2812 18.1562
v -2.1328 17.2812 16.3750
v -3.1191 16.7969 18.1562
v -3.1191 16.7969 16.3750
v -4.0000 16.1406 18.1562
v -4.0000 16.1406 16.3750
v -4.7461 15.3281 16.3750
v -4.7461 15.3281 18.1562
v -5.3281 14.3906 16.3750
v -5.3281 14.3906 18.1562
v -5.7266 13.3672 16.3750
v -5.7266 13.3672 18.1562
v -5.9336 12.2891 16.3750
v -5.9336 12.2891 18.1562
v -5.9336 11.1875 16.3750
v -5.9336 11.1875 18.1562
v -5.7344 10.1094 18.1562
v -5.7344 10.1094 16.3750
v -5.3359 9.0859 18.1562
v -5.3359 9.0859 16.3750
v -4.7578 8.1484 18.1562
v -4.7578 8.1484 16.3750
v -4.0156 7.3359 18.1562
v -4.0156 7.3359 16.3750
v -3.1387 6.6758 16.3750
v -3.1387 6.6758 18.1562
v -2.1523 6.1875 16.3750
v -2.1523 6.1875 18.1562
v -1.0947 5.8906 16.3750
v -1.0947 5.8906 18.1562
v 0.0000 5.7930 16.3750
v 0.0000 5.7930 18.1562
v 0.0000 17.6562 18.1562
v 1.0732 17.5625 18.1562
v 0.0000 17.6562 16.3750
v 1.0732 17.5625 16.3750
v 2.1328 17.2812 18.1562
v 2.1328 17.2812 16.3750
v 3.1191 16.7969 18.1562
v 3.1191 16.7969 16.3750
v 4.0000 16.1406 18.1562
v 4.0000 16.1406 16.3750
v 4.7461 15.3281 16.3750
v 4.7461 15.3281 18.1562
v 5.3281 14.3906 16.3750
v 5.3281 14.3906 18.1562
v 5.7266 13.3672 16.3750
v 5.7266 13.3672 18.1562
v 5.9336 12.2891 16.3750
v 5.9336 12.2891 18.1562
v 5.9336 11.1875 16.3750
v 5.9336 11.1875 18.1562
v 5.7344 10.1094 18.1562
v 5.7344 10.1094 16.3750
v 5.3359 9.0859 18.1562
v 5.3359 9.0859 16.3750
v 4.7578 8.1484 18.1562
v 4.7578 8.1484 16.3750
v 4.0156 7.3359 18.1562
v 4.0156 7.3359 16.3750
v 3.1387 6.6758 16.3750
v 3.1387 6.6758 18.1562
v 2.1523 6.1875 16.3750
v 2.1523 6.1875 18.1562
v 1.0947 5.8906 16.3750
v 1.0947 5.8906 18.1562
v 0.0000 5.7930 16.3750
v 0.0000 5.7930 18.1562
v -5.8008 19.8281 18.0938
v -5.8008 19.8281 8.7500
v -6.4766 19.7031 18.0938
v -6.4766 19.7031 8.7500
v -5.1250 19.7031 8.7500
v -7.0547 19.3125 18.0938
v -5.1250 19.7031 18.0938
v -7.0547 19.3125 8.7500
v -4.5508 19.3125 18.0938
v -7.4297 18.7344 8.7500
v -4.5508 19.3125 8.7500
v -7.4297 18.7344 18.0938
v -4.1758 18.7344 14.1250
v -7.5664 18.0625 8.7500
v -4.1758 18.7344 18.0938
v -7.5664 18.0625 18.0938
v -4.0391 18.0625 14.1250
v -7.4297 17.3906 18.0938
v -4.0391 18.0625 18.0938
v -7.4297 17.3906 8.7500
v -4.1758 17.3906 18.0938
v -7.0547 16.8125 18.0938
v -4.1758 17.3906 14.1250
v -7.0547 16.8125 8.7500
v -4.5508 16.8125 18.0938
v -6.4766 16.4375 14.1250
v -4.5508 16.8125 14.1250
v -6.4766 16.4375 18.0938
v -5.8008 16.2969 18.0938
v -5.8008 16.2969 14.1250
v -5.1250 16.4375 14.1250
v -5.1250 16.4375 18.0938
v -5.8008 16.2969 14.1250
v -5.8008 16.2969 18.0938
v 3.0469 -22.9531 -0.0000
v 3.0469 -22.9531 9.8672
v 7.2070 -22.9531 9.8672
v 7.2070 -22.9531 -0.0000
v 7.2070 -24.9531 10.1875
v 7.2070 -24.9531 -0.0000
v 7.2070 -22.9531 9.8672
v 7.2070 -22.9531 -0.0000
v 7.2070 -26.9531 9.8672
v 7.2070 -26.9531 -0.0000
v 2.9746 -26.9531 9.8672
v 2.9746 -26.9531 -0.0000
v 7.2070 -26.9531 9.8672
v 7.2070 -26.9531 -0.0000
v -12.6562 21.3906 0.5327
v -12.6562 21.3906 2.9043
v -12.6562 21.8594 2.9004
v -12.6562 21.8594 0.5298
v 6.4766 19.7031 18.0938
v 5.8008 19.8281 8.7500
v 5.8008 19.8281 18.0938
v 6.4766 19.7031 8.7500
v 5.1250 19.7031 8.7500
v 7.0547 19.3125 18.0938
v 5.1250 19.7031 18.0938
v 7.0547 19.3125 8.7500
v 4.5508 19.3125 18.0938
v 7.4297 18.7344 8.7500
v 4.5508 19.3125 8.7500
v 7.4297 18.7344 18.0938
v 4.1758 18.7344 14.1250
v 7.5664 18.0625 18.0938
v 4.1758 18.7344 18.0938
v 7.5664 18.0625 8.7500
v 4.0391 18.0625 18.0938
v 7.4297 17.3906 18.0938
v 4.0391 18.0625 14.1250
v 7.4297 17.3906 8.7500
v 4.1758 17.3906 18.0938
v 7.0547 16.8125 18.0938
v 4.1758 17.3906 14.1250
v 7.0547 16.8125 8.7500
v 4.5508 16.8125 18.0938
v 6.4766 16.4375 14.1250
v 4.5508 16.8125 14.1250
v 6.4766 16.4375 18.0938
v 5.8008 16.2969 18.0938
v 5.8008 16.2969 14.1250
v 5.1250 16.4375 14.1250
v 5.1250 16.4375 18.0938
v 5.8008 16.2969 14.1250
v 5.8008 16.2969 18.0938
v 12.6562 11.5234 7.2578
v 12.6562 11.5234 4.8867
v 12.6562 12.0000 7.2539
v 12.6562 12.0000 4.8828
v 12.6562 14.1641 2.9043
v 12.6562 14.6562 0.5356
v 12.6562 14.6562 2.9082
v 12.6562 14.1641 0.5327
v -15.8594 6.6445 5.0859
v -15.8594 7.6484 4.1680
v -15.8594 7.6484 5.0859
v -15.8594 9.6953 0.8726
v -15.8594 9.6953 4.1680
v -15.8594 6.6992 0.8726
v -15.8594 5.6406 4.1680
v -15.8594 5.6406 5.0859
v -15.8594 3.4941 0.8726
v -15.8594 3.4980 4.1680
v -15.8594 7.6484 4.1680
v -17.9688 9.7031 5.0859
v -15.8594 7.6484 5.0859
v -17.9688 9.7031 4.1680
v -17.9375 3.6211 5.0859
v -15.8594 5.6406 4.1680
v -15.8594 5.6406 5.0859
v -17.9375 3.6191 4.1680
v -22.0938 7.6484 5.0859
v -22.0938 7.6484 4.1680
v -22.0938 6.6445 5.0859
v -22.0938 9.6953 4.1680
v -22.0938 9.6953 0.8726
v -22.0938 6.6992 0.8726
v -22.0938 5.6406 4.1680
v -22.0938 5.6406 5.0859
v -22.0938 3.4941 0.8726
v -22.0938 3.4980 4.1680
v -22.0938 7.6484 5.0859
v -19.9844 9.6953 5.0859
v -19.9844 9.6953 4.1680
v -22.0938 7.6484 4.1680
v -22.0938 5.6406 4.1680
v -20.0156 3.6211 5.0859
v -22.0938 5.6406 5.0859
v -20.0156 3.6191 4.1680
v -18.9844 9.6953 5.0859
v -17.9688 9.7031 4.1680
v -18.9375 9.6953 0.8726
v -17.9688 9.7031 5.0859
v -15.9375 9.6953 0.8726
v -15.9375 9.6953 4.1680
v -19.9844 9.6953 4.1680
v -19.9844 9.6953 5.0859
v -21.9375 9.6953 0.8726
v -21.9375 9.6953 4.1680
v -13.1719 17.0312 10.5312
v -13.1719 18.0312 0.6206
v -13.1719 17.0312 0.6206
v -13.1719 18.0312 11.1641
v -13.1719 19.0156 10.5312
v -13.1719 19.0156 0.6206
v -10.7656 17.0312 0.6206
v -10.7656 17.0312 10.5312
v -13.1719 17.0312 10.5312
v -13.1719 17.0312 0.6206
v -10.7656 19.0156 10.5312
v -13.1719 19.0156 0.6206
v -13.1719 19.0156 10.5312
v -10.7656 19.0156 0.6206
v 6.7383 21.8750 14.9844
v 4.8633 21.8750 11.1797
v 4.8633 21.8750 14.9844
v 6.7383 21.8750 11.1797
v 6.7383 20.3594 15.2500
v 6.7383 21.8750 11.1797
v 6.7383 21.8750 14.9844
v 6.7383 19.3125 11.1797
v 6.7383 19.8281 15.8516
v 6.7383 19.3125 15.8516
v 4.8633 19.3125 11.1797
v 4.8633 19.3125 15.8516
v 4.8633 19.8281 15.8516
v 4.8633 20.3594 15.2500
v 4.8633 21.8750 11.1797
v 4.8633 21.8750 14.9844
v 2.2715 -6.7227 8.2109
v -2.2715 -6.7227 8.2109
v -2.2715 -6.7227 6.8359
v 2.2715 -6.7227 6.8359
v 2.2715 -6.7227 8.2109
v 2.2715 -2.0430 6.8359
v 2.2715 -2.0430 8.2109
v 2.2715 -6.7227 6.8359
v -2.2715 -6.7227 8.2109
v -2.2715 -2.0430 8.2109
v -2.2715 -2.0430 6.8359
v -2.2715 -6.7227 6.8359
v -11.0000 6.4805 11.5938
v -11.0000 4.3828 9.5078
v -11.0000 4.3828 11.5938
v -11.0000 6.4805 9.5078
v -11.0000 6.4805 11.5938
v -6.9023 6.4805 12.3516
v -6.9023 6.4805 9.5078
v -11.0000 6.4805 9.5078
v -11.0000 4.3828 11.5938
v -6.9023 4.3828 9.5078
v -6.9023 4.3828 12.3516
v -11.0000 4.3828 9.5078
v -12.6562 19.3125 4.6914
v -12.6562 17.5781 2.9121
v -12.6562 17.5781 4.6914
v -12.6562 19.3125 2.9082
v -12.6562 19.7969 3.9180
v -12.6562 19.7969 4.6914
v -12.6562 20.2812 4.3203
v -12.6562 20.2812 4.6914
v -12.6562 20.7656 4.6914
v -12.6562 20.7656 3.9160
v -12.6562 21.2500 4.6914
v -12.6562 21.2500 2.9043
v -12.6562 22.0625 4.6914
v -12.6562 22.0625 2.9004
v -12.6562 11.5234 4.8867
v -12.6562 11.5234 7.2578
v -12.6562 12.0000 7.2539
v -12.6562 12.0000 4.8828
v 12.6562 1.5430 7.2578
v 12.6562 2.1230 4.8867
v 12.6562 2.1230 7.2578
v 12.6562 1.5430 4.8867
v -5.7617 -3.6094 11.4766
v -6.4375 -3.4766 6.8281
v -5.7617 -3.6094 6.8281
v -5.0898 -3.4766 6.8281
v -6.4375 -3.4766 11.4766
v -5.0898 -3.4766 11.4766
v -7.0117 -3.0938 6.8281
v -4.5156 -3.0938 6.8281
v -7.0117 -3.0938 11.4766
v -4.5156 -3.0938 11.4766
v -7.3828 -2.5215 11.4766
v -4.1445 -2.5215 11.4766
v -7.3828 -2.5215 6.8281
v -4.1445 -2.5215 6.8281
v -7.5195 -1.8516 11.4766
v -4.0078 -1.8516 11.4766
v -7.5195 -1.8516 6.8281
v -4.0078 -1.8516 6.8281
v -7.3828 -1.1807 6.8281
v -4.1445 -1.1807 6.8281
v -7.3828 -1.1807 11.4766
v -4.1445 -1.1807 11.4766
v -7.0117 -0.6079 11.4766
v -4.5156 -0.6079 11.4766
v -7.0117 -0.6079 6.8281
v -4.5156 -0.6079 6.8281
v -6.4375 -0.2258 11.4766
v -5.0898 -0.2258 6.8281
v -6.4375 -0.2258 6.8281
v -5.7617 -0.0921 11.4766
v -5.7617 -0.0921 6.8281
v -5.0898 -0.2258 11.4766
v -5.7617 -0.0921 6.8281
v -5.7617 -0.0921 11.4766
v 12.6562 4.1367 9.0469
v 12.6562 5.8789 7.2578
v 12.6562 5.8789 9.0469
v 12.6562 4.1367 7.2578
v 12.6562 3.6504 8.2734
v 12.6562 3.6504 9.0469
v 12.6562 3.1660 8.6797
v 12.6562 3.1660 9.0469
v 12.6562 2.6816 9.0469
v 12.6562 2.6816 8.2734
v 12.6562 2.1992 9.0469
v 12.6562 2.1992 7.2578
v 12.6562 1.3945 9.0469
v 12.6562 1.3945 7.2578
v 12.6562 0.9282 8.1797
v 12.6562 0.9282 9.0469
v 12.6562 14.1016 7.2578
v 12.6562 14.6719 4.8906
v 12.6562 14.6719 7.2617
v 12.6562 14.1016 4.8867
f 1 2 3
f 3 4 1
f 5 6 7
f 6 8 7
f 5 7 9
f 6 10 8
f 11 5 9
f 10 12 8
f 11 9 13
f 10 14 12
f 15 11 13
f 14 16 12
f 15 13 17
f 14 18 16
f 19 15 17
f 18 20 16
f 19 17 21
f 18 22 20
f 23 19 21
f 22 24 20
f 19 23 25
f 22 26 24
f 27 25 23
f 26 28 24
f 25 27 29
f 26 30 28
f 31 29 27
f 30 32 28
f 31 27 33
f 34 31 33
f 34 33 35
f 30 36 32
f 36 37 32
f 36 38 37
f 39 40 41
f 40 39 42
f 43 44 45
f 44 43 46
f 43 47 46
f 47 48 46
f 49 50 51
f 49 51 52
f 53 49 52
f 54 53 52
f 55 56 57
f 55 57 58
f 59 60 61
f 62 61 60
f 63 64 65
f 64 63 66
f 67 68 69
f 68 67 70
f 71 72 73
f 71 73 74
f 75 76 77
f 76 75 78
f 79 80 81
f 80 79 82
f 83 81 80
f 81 83 84
f 85 84 83
f 84 85 86
f 87 86 85
f 87 85 88
f 89 87 88
f 90 89 88
f 89 90 91
f 91 90 92
f 93 94 95
f 95 94 96
f 97 98 99
f 97 100 98
f 101 97 99
f 102 98 100
f 103 101 99
f 98 102 104
f 101 103 105
f 106 104 102
f 105 103 107
f 106 108 104
f 109 105 107
f 110 108 106
f 105 109 111
f 108 110 112
f 113 111 109
f 112 110 114
f 111 113 115
f 110 116 114
f 117 115 113
f 116 118 114
f 117 113 119
f 116 120 118
f 121 117 119
f 122 118 120
f 123 121 119
f 118 122 124
f 125 121 123
f 126 124 122
f 125 123 127
f 128 127 123
f 127 128 129
f 126 130 124
f 126 131 130
f 132 131 126
f 131 132 133
f 132 134 133
f 134 135 133
f 134 136 135
f 137 135 136
f 135 137 138
f 139 138 137
f 139 140 138
f 139 141 140
f 142 141 139
f 143 144 145
f 143 145 146
f 147 148 149
f 148 147 150
f 151 152 153
f 152 151 154
f 155 156 157
f 158 157 156
f 161 159 160
f 162 159 161
f 163 162 161
f 164 162 163
f 164 165 162
f 166 167 168
f 166 168 169
f 170 171 172
f 173 172 171
f 174 175 176
f 175 174 177
f 178 179 180
f 179 178 181
f 182 181 178
f 183 181 182
f 183 182 184
f 185 186 187
f 186 185 188
f 189 185 187
f 189 187 190
f 190 191 189
f 192 193 194
f 192 194 195
f 196 197 198
f 199 198 197
f 200 201 202
f 201 200 203
f 204 205 206
f 205 204 207
f 208 209 210
f 208 210 211
f 212 213 214
f 213 212 215
f 216 217 218
f 216 218 219
f 220 221 222
f 223 222 221
f 224 225 226
f 225 224 227
f 228 229 230
f 229 228 231
f 232 233 234
f 232 234 235
f 236 237 238
f 237 236 239
f 240 241 242
f 241 240 243
f 244 245 246
f 246 245 247
f 248 249 250
f 249 248 251
f 249 251 252
f 252 251 253
f 254 255 256
f 254 257 255
f 258 257 254
f 257 258 259
f 260 261 262
f 262 263 260
f 264 265 266
f 266 265 267
f 268 269 270
f 269 268 271
f 269 271 272
f 272 271 273
f 274 275 276
f 274 277 275
f 278 277 274
f 277 278 279
f 280 281 282
f 281 283 282
f 280 284 281
f 283 281 285
f 286 284 280
f 285 287 283
f 286 288 284
f 287 285 289
f 290 288 286
f 289 291 287
f 288 290 292
f 291 289 293
f 290 294 292
f 291 293 295
f 294 290 296
f 291 295 297
f 296 298 294
f 297 295 299
f 298 296 300
f 297 299 301
f 302 298 300
f 299 303 301
f 302 304 298
f 303 299 305
f 306 304 302
f 305 307 303
f 306 308 304
f 307 305 309
f 310 308 306
f 311 307 309
f 308 310 312
f 312 313 308
f 313 312 314
f 307 311 315
f 315 311 316
f 315 316 317
f 317 316 318
f 317 318 319
f 318 320 319
f 320 318 321
f 321 322 320
f 322 321 323
f 322 323 324
f 324 325 322
f 326 328 327
f 326 329 328
f 330 328 329
f 331 330 329
f 331 329 332
f 333 334 335
f 334 336 337
f 337 338 334
f 338 335 334
f 335 338 339
f 335 339 340
f 341 342 343
f 342 341 344
f 345 346 347
f 348 347 346
f 349 350 351
f 352 351 350
f 351 352 353
f 351 353 354
f 353 352 355
f 356 353 355
f 357 358 359
f 358 360 359
f 358 361 360
f 361 358 362
f 360 361 363
f 363 361 364
f 363 365 360
f 365 363 366
f 367 368 369
f 368 367 370
f 371 372 373
f 372 371 374
f 371 375 374
f 375 376 374
f 377 378 379
f 377 379 380
f 381 377 380
f 382 381 380
f 383 384 385
f 385 384 386
f 383 387 384
f 386 388 385
f 389 387 383
f 389 390 387
f 390 389 391
f 388 386 392
f 393 388 392
f 388 393 394
f 395 394 393
f 394 395 396
f 397 396 395
f 396 397 398
f 399 400 401
f 402 401 400
f 400 399 403
f 401 402 404
f 405 404 402
f 404 406 407
f 408 403 399
f 403 408 409
f 408 410 409
f 411 410 408
f 411 412 410
f 412 411 413
f 413 414 412
f 414 413 415
f 417 416 418
f 420 419 421
f 422 423 424
f 423 422 425
f 425 426 423
f 426 425 427
f 427 428 426
f 428 427 429
f 430 428 429
f 430 431 428
f 432 431 430
f 432 433 431
f 434 433 432
f 433 434 435
f 436 437 438
f 436 438 439
f 440 436 439
f 436 440 441
f 442 441 440
f 441 442 443
f 444 443 442
f 444 442 445
f 446 444 445
f 447 446 445
f 446 447 448
f 448 447 449
f 450 448 449
f 448 450 451
f 452 453 454
f 454 453 455
f 453 452 456
f 455 453 457
f 452 458 456
f 455 457 459
f 460 458 452
f 459 457 461
f 460 462 458
f 459 461 463
f 464 462 460
f 463 461 465
f 466 462 464
f 467 463 465
f 462 466 468
f 463 467 469
f 470 468 466
f 469 467 471
f 468 470 472
f 471 467 473
f 470 474 472
f 471 473 475
f 476 474 470
f 475 473 477
f 475 477 478
f 478 477 479
f 480 474 476
f 474 480 481
f 480 482 481
f 483 482 480
f 483 484 482
f 485 484 483
f 486 487 488
f 487 486 489
f 490 491 492
f 491 490 493
f 491 494 492
f 494 491 495
f 496 497 498
f 498 497 499
f 500 501 502
f 502 501 503
f 504 505 506
f 506 505 507
f 508 509 510
f 509 508 511
f 509 512 510
f 512 509 513
f 514 515 516
f 516 515 517
f 518 519 520
f 520 519 521
f 522 523 524
f 523 522 525
f 528 526 527
f 529 526 528
f 528 530 529
f 530 528 531
f 532 533 534
f 533 532 535
f 536 537 538
f 536 538 539
f 540 539 538
f 540 538 541
f 539 540 542
f 543 539 542
f 546 545 544
f 547 546 544
f 546 547 548
f 546 548 549
f 550 551 552
f 551 550 553
f 554 555 556
f 555 554 557
f 556 558 554
f 558 556 559
f 560 561 562
f 560 562 563
f 564 560 563
f 560 564 565
f 566 565 564
f 565 566 567
f 568 567 566
f 568 566 569
f 570 568 569
f 571 570 569
f 570 571 572
f 572 571 573
f 574 575 576
f 575 574 577
f 574 578 577
f 578 574 579
f 579 580 578
f 580 579 581
f 582 580 581
f 582 583 580
f 584 583 582
f 584 585 583
f 586 585 584
f 585 586 587
f 586 588 587
f 588 586 589
f 590 591 592
f 592 591 593
f 590 594 591
f 592 593 595
f 594 590 596
f 596 597 594
f 597 596 598
f 595 593 599
f 600 595 599
f 595 600 601
f 602 601 600
f 601 602 603
f 604 603 602
f 603 604 605
f 605 604 606
f 606 607 605
f 608 609 610
f 611 610 609
f 609 608 612
f 610 611 613
f 614 613 611
f 613 614 615
f 616 612 608
f 612 616 617
f 616 618 617
f 619 618 616
f 619 620 618
f 620 619 621
f 621 622 620
f 622 621 623
f 623 624 622
f 625 624 623
f 626 627 628
f 628 627 629
f 630 631 632
f 631 630 633
f 631 633 634
f 634 633 635
f 636 637 638
f 636 639 637
f 640 639 636
f 639 640 641
f 642 643 644
f 643 642 645
f 646 647 648
f 647 646 649
f 650 651 652
f 651 650 653
f 650 654 653
f 654 655 653
f 656 657 658
f 656 658 659
f 660 656 659
f 661 660 659
f 662 663 664
f 663 662 665
f 666 664 663
f 667 665 662
f 664 666 668
f 665 667 669
f 668 666 670
f 667 671 669
f 670 666 672
f 673 671 667
f 674 670 672
f 675 671 673
f 670 674 676
f 671 675 677
f 676 674 678
f 675 679 677
f 678 674 680
f 681 679 675
f 678 680 682
f 683 679 681
f 678 682 684
f 679 683 685
f 684 682 686
f 685 683 687
f 686 682 688
f 686 688 689
f 689 688 690
f 691 687 683
f 691 692 687
f 693 692 691
f 693 694 692
f 695 694 693
f 696 697 698
f 698 697 699
f 696 700 697
f 699 701 698
f 702 700 696
f 702 703 700
f 703 702 704
f 701 699 705
f 706 701 705
f 701 706 707
f 708 707 706
f 707 708 709
f 710 709 708
f 709 710 711
f 712 713 714
f 715 714 713
f 713 712 716
f 714 715 717
f 718 717 715
f 717 719 720
f 721 716 712
f 716 721 722
f 721 723 722
f 724 723 721
f 724 725 723
f 725 724 726
f 726 727 725
f 727 726 728
f 729 730 731
f 730 729 732
f 733 734 735
f 735 734 736
f 737 738 739
f 739 740 737
f 738 737 741
f 741 737 742
f 743 744 745
f 744 743 746
f 747 748 749
f 748 747 750
f 751 748 750
f 748 751 752
f 753 754 755
f 755 756 753
f 757 758 759
f 758 757 760
f 761 762 763
f 762 764 763
f 761 765 762
f 764 762 766
f 767 765 761
f 766 768 764
f 767 769 765
f 768 766 770
f 771 769 767
f 770 772 768
f 769 771 773
f 772 770 774
f 771 775 773
f 772 774 776
f 775 771 777
f 772 776 778
f 777 779 775
f 778 776 780
f 779 777 781
f 778 780 782
f 783 779 781
f 780 784 782
f 783 785 779
f 784 780 786
f 787 785 783
f 786 788 784
f 787 789 785
f 788 786 790
f 791 789 787
f 792 788 790
f 789 791 793
f 793 794 789
f 794 793 795
f 788 792 796
f 796 792 797
f 796 797 798
f 798 797 799
f 798 799 800
f 799 801 800
f 801 799 802
f 802 803 801
f 803 802 804
f 803 804 805
f 805 806 803
f 807 808 809
f 808 807 810
f 811 812 813
f 813 812 814
f 815 816 817
f 816 815 818
f 819 820 821
f 820 819 822
f 819 821 823
f 823 824 819
f 824 823 825
f 825 826 824
f 827 828 829
f 828 827 830
f 829 831 827
f 831 829 832
f 833 831 832
f 831 833 834
f 835 836 837
f 835 837 838
f 839 837 836
f 837 839 840
f 841 842 843
f 841 843 844
f 844 843 845
f 843 846 845
f 845 846 847
f 848 845 847
f 849 850 851
f 850 849 852
f 853 854 855
f 853 855 856
f 857 858 859
f 858 857 860
f 861 857 859
f 857 861 862
f 863 864 865
f 864 863 866
f 867 868 869
f 868 867 870
f 871 872 873
f 871 873 874
f 875 874 873
f 874 875 876
f 875 877 876
f 877 875 878
f 879 880 881
f 882 879 881
f 879 883 880
f 880 883 884
f 883 879 885
f 886 883 885
f 886 885 887
f 887 885 888
f 885 889 888
f 889 885 890
f 891 889 890
f 889 891 892
f 892 891 893
f 893 891 894
f 894 891 895
f 896 895 891
f 896 897 895
f 898 895 897
f 897 896 899
f 899 896 900
f 901 902 903
f 904 902 901
f 902 904 905
f 905 906 902
f 905 907 906
f 907 905 908
f 909 907 908
f 908 910 909
f 910 908 911
f 911 912 910
f 911 913 912
f 913 911 914
f 913 914 915
f 913 915 916
f 917 918 919
f 918 920 919
f 918 917 921
f 920 918 922
f 923 921 917
f 922 924 920
f 923 925 921
f 925 923 926
f 926 923 927
f 923 928 927
f 928 923 929
f 928 929 930
f 930 929 931
f 931 932 930
f 930 932 933
f 924 922 934
f 935 924 934
f 936 924 935
f 937 924 936
f 924 937 938
f 939 938 937
f 940 938 939
f 941 940 939
f 939 942 941
f 943 944 945
f 945 944 946
f 947 948 949
f 948 947 950
f 951 952 953
f 952 951 954
f 955 956 957
f 955 957 958
f 959 960 961
f 961 960 962
f 959 963 960
f 961 962 964
f 965 963 959
f 965 966 963
f 966 965 967
f 964 962 968
f 969 964 968
f 964 969 970
f 971 970 969
f 970 971 972
f 973 972 971
f 972 973 974
f 974 973 975
f 975 976 974
f 977 978 979
f 980 979 978
f 978 977 981
f 979 980 982
f 983 982 980
f 982 984 985
f 986 981 977
f 981 986 987
f 986 988 987
f 989 988 986
f 989 990 988
f 990 989 991
f 991 992 990
f 992 991 993
f 993 994 992
f 995 994 993
f 996 997 998
f 996 998 999
f 1000 996 999
f 996 1000 1001
f 1002 1001 1000
f 1001 1002 1003
f 1004 1003 1002
f 1004 1002 1005
f 1006 1004 1005
f 1007 1006 1005
f 1006 1007 1008
f 1008 1007 1009
f 1010 1008 1009
f 1008 1010 1011
f 1012 1013 1014
f 1013 1012 1015
f 1015 1012 1016
f 1016 1012 1017
f 1016 1017 1018
f 1019 1020 1021
f 1019 1022 1020
f 1023 1019 1021
f 1024 1020 1022
f 1025 1023 1021
f 1020 1024 1026
f 1023 1025 1027
f 1028 1026 1024
f 1027 1025 1029
f 1028 1030 1026
f 1031 1027 1029
f 1032 1030 1028
f 1027 1031 1033
f 1030 1032 1034
f 1035 1033 1031
f 1034 1032 1036
f 1033 1035 1037
f 1032 1038 1036
f 1039 1037 1035
f 1038 1040 1036
f 1039 1035 1041
f 1038 1042 1040
f 1043 1039 1041
f 1044 1040 1042
f 1045 1043 1041
f 1040 1044 1046
f 1047 1043 1045
f 1048 1046 1044
f 1047 1045 1049
f 1050 1049 1045
f 1049 1050 1051
f 1048 1052 1046
f 1048 1053 1052
f 1054 1053 1048
f 1053 1054 1055
f 1054 1056 1055
f 1056 1057 1055
f 1056 1058 1057
f 1059 1057 1058
f 1057 1059 1060
f 1061 1060 1059
f 1061 1062 1060
f 1061 1063 1062
f 1064 1063 1061
f 1065 1066 1067
f 1066 1065 1068
f 1069 1070 1071
f 1072 1071 1070
f 1070 1069 1073
f 1071 1072 1074
f 1075 1073 1069
f 1076 1074 1072
f 1073 1075 1077
f 1074 1076 1078
f 1079 1077 1075
f 1078 1076 1080
f 1077 1079 1081
f 1078 1080 1082
f 1079 1083 1081
f 1080 1084 1082
f 1083 1079 1085
f 1084 1080 1086
f 1087 1083 1085
f 1086 1088 1084
f 1083 1087 1089
f 1088 1086 1090
f 1087 1091 1089
f 1092 1088 1090
f 1091 1087 1093
f 1088 1092 1094
f 1091 1093 1095
f 1096 1094 1092
f 1095 1093 1097
f 1098 1095 1097
f 1095 1098 1099
f 1094 1096 1100
f 1101 1100 1096
f 1100 1101 1102
f 1103 1104 1105
f 1104 1103 1106
f 1106 1103 1107
f 1107 1103 1108
f 1107 1108 1109
f 1110 1111 1112
f 1113 1111 1110
f 1114 1111 1113
f 1114 1115 1111
f 1115 1114 1116
f 1117 1115 1116
f 1118 1115 1117
f 1119 1118 1117
f 1120 1118 1119
f 1120 1121 1118
f 1122 1123 1124
f 1123 1122 1125
f 1126 1127 1128
f 1127 1129 1128
f 1127 1126 1130
f 1129 1127 1131
f 1126 1132 1130
f 1131 1133 1129
f 1132 1126 1134
f 1133 1131 1135
f 1134 1136 1132
f 1137 1133 1135
f 1136 1134 1138
f 1133 1137 1139
f 1138 1140 1136
f 1141 1139 1137
f 1140 1138 1142
f 1139 1141 1143
f 1142 1144 1140
f 1145 1143 1141
f 1144 1142 1146
f 1143 1145 1147
f 1144 1146 1148
f 1147 1145 1149
f 1148 1146 1150
f 1147 1149 1151
f 1152 1148 1150
f 1153 1151 1149
f 1148 1152 1154
f 1155 1154 1152
f 1154 1155 1156
f 1151 1153 1157
f 1158 1157 1153
f 1157 1158 1159
f 1160 1161 1162
f 1162 1161 1163
f 1160 1164 1161
f 1162 1163 1165
f 1166 1164 1160
f 1165 1163 1167
f 1166 1168 1164
f 1169 1165 1167
f 1170 1168 1166
f 1165 1169 1171
f 1168 1170 1172
f 1173 1171 1169
f 1174 1172 1170
f 1171 1173 1175
f 1176 1172 1174
f 1175 1173 1177
f 1172 1176 1178
f 1177 1173 1179
f 1180 1178 1176
f 1177 1179 1181
f 1178 1180 1182
f 1181 1179 1183
f 1184 1182 1180
f 1181 1183 1185
f 1182 1184 1186
f 1181 1185 1187
f 1187 1185 1188
f 1188 1185 1189
f 1184 1190 1186
f 1191 1190 1184
f 1191 1192 1190
f 1193 1192 1191
f 1194 1195 1196
f 1196 1195 1197
f 1198 1199 1200
f 1199 1198 1201
f 1199 1201 1202
f 1202 1201 1203
f 1204 1205 1206
f 1204 1207 1205
f 1208 1207 1204
f 1207 1208 1209
f 1210 1211 1212
f 1212 1211 1213
f 1214 1212 1213
f 1214 1213 1215
f 1215 1216 1214
f 1216 1215 1217
f 1216 1217 1218
f 1218 1217 1219
f 1220 1218 1219
f 1218 1220 1221
f 1222 1221 1220
f 1221 1222 1223
f 1224 1223 1222
f 1223 1224 1225
f 1226 1225 1224
f 1225 1226 1227
f 1227 1226 1228
f 1229 1227 1228
f 1230 1229 1228
f 1230 1228 1231
f 1230 1231 1232
f 1232 1231 1233
f 1233 1234 1232
f 1234 1233 1235
f 1234 1235 1236
f 1236 1235 1237
f 1238 1236 1237
f 1236 1238 1239
f 1240 1239 1238
f 1239 1240 1241
f 1242 1241 1240
f 1241 1242 1243
f 1244 1243 1242
f 1243 1244 1245
f 1246 1247 1248
f 1247 1249 1248
f 1250 1249 1247
f 1249 1250 1251
f 1252 1251 1250
f 1251 1252 1253
f 1254 1253 1252
f 1253 1254 1255
f 1254 1256 1255
f 1256 1254 1257
f 1257 1258 1256
f 1259 1258 1257
f 1259 1260 1258
f 1260 1259 1261
f 1261 1262 1260
f 1262 1261 1263
f 1263 1264 1262
f 1265 1264 1263
f 1266 1264 1265
f 1264 1266 1267
f 1266 1268 1267
f 1268 1269 1267
f 1270 1269 1268
f 1269 1270 1271
f 1272 1271 1270
f 1271 1272 1273
f 1272 1274 1273
f 1274 1272 1275
f 1275 1276 1274
f 1277 1276 1275
f 1277 1278 1276
f 1278 1277 1279
f 1279 1280 1278
f 1280 1279 1281
f 1282 1283 1284
f 1284 1283 1285
f 1282 1286 1283
f 1284 1285 1287
f 1288 1286 1282
f 1287 1285 1289
f 1290 1286 1288
f 1291 1287 1289
f 1286 1290 1292
f 1287 1291 1293
f 1292 1290 1294
f 1295 1293 1291
f 1296 1294 1290
f 1293 1295 1297
f 1296 1298 1294
f 1297 1295 1299
f 1300 1298 1296
f 1299 1295 1301
f 1302 1298 1300
f 1299 1301 1303
f 1298 1302 1304
f 1303 1301 1305
f 1306 1304 1302
f 1303 1305 1307
f 1304 1306 1308
f 1303 1307 1309
f 1309 1307 1310
f 1310 1307 1311
f 1306 1312 1308
f 1313 1312 1306
f 1313 1314 1312
f 1315 1314 1313
f 1316 1317 1318
f 1318 1319 1316
f 1320 1321 1322
f 1322 1321 1323
f 1324 1321 1320
f 1321 1324 1325
f 1326 1327 1328
f 1328 1327 1329
f 1330 1331 1332
f 1332 1333 1330
f 1334 1335 1336
f 1335 1334 1337
f 1338 1336 1335
f 1339 1337 1334
f 1336 1338 1340
f 1337 1339 1341
f 1338 1342 1340
f 1339 1343 1341
f 1342 1338 1344
f 1343 1339 1345
f 1342 1344 1346
f 1347 1343 1345
f 1342 1346 1348
f 1343 1347 1349
f 1346 1350 1348
f 1351 1349 1347
f 1350 1346 1352
f 1349 1351 1353
f 1352 1354 1350
f 1355 1353 1351
f 1354 1352 1356
f 1353 1355 1357
f 1356 1358 1354
f 1357 1355 1359
f 1358 1356 1360
f 1359 1355 1361
f 1362 1359 1361
f 1359 1362 1363
f 1364 1358 1360
f 1358 1364 1365
f 1366 1365 1364
f 1365 1366 1367
f 1368 1369 1370
f 1370 1369 1371
f 1372 1373 1374
f 1373 1372 1375
f 1376 1377 1378
f 1377 1379 1380
f 1379 1377 1381
f 1377 1376 1381
f 1381 1376 1382
f 1382 1376 1383
f 1382 1384 1381
f 1385 1384 1382
f 1386 1387 1388
f 1387 1386 1389
f 1390 1391 1392
f 1391 1390 1393
f 1394 1395 1396
f 1395 1397 1398
f 1398 1399 1395
f 1399 1396 1395
f 1396 1399 1400
f 1396 1400 1401
f 1400 1399 1402
f 1403 1400 1402
f 1404 1405 1406
f 1404 1406 1407
f 1408 1409 1410
f 1409 1408 1411
f 1412 1413 1414
f 1413 1412 1415
f 1416 1414 1413
f 1413 1417 1416
f 1412 1414 1418
f 1412 1418 1419
f 1418 1414 1420
f 1420 1421 1418
f 1422 1423 1424
f 1423 1422 1425
f 1426 1423 1425
f 1423 1426 1427
f 1428 1429 1430
f 1430 1431 1428
f 1432 1433 1434
f 1433 1432 1435
f 1436 1437 1438
f 1437 1436 1439
f 1440 1441 1442
f 1441 1440 1443
f 1440 1444 1443
f 1444 1445 1443
f 1446 1447 1448
f 1446 1448 1449
f 1450 1446 1449
f 1451 1450 1449
f 1452 1453 1454
f 1452 1454 1455
f 1456 1457 1458
f 1457 1456 1459
f 1460 1461 1462
f 1460 1462 1463
f 1464 1465 1466
f 1465 1464 1467
f 1468 1469 1470
f 1468 1470 1471
f 1472 1473 1474
f 1473 1472 1475
f 1476 1477 1478
f 1477 1476 1479
f 1476 1480 1479
f 1480 1476 1481
f 1481 1482 1480
f 1482 1481 1483
f 1484 1482 1483
f 1484 1485 1482
f 1486 1485 1484
f 1486 1487 1485
f 1488 1487 1486
f 1487 1488 1489
f 1490 1491 1492
f 1492 1493 1490
f 1494 1495 1496
f 1495 1494 1497
f 1498 1499 1500
f 1501 1498 1500
f 1499 1498 1502
f 1498 1501 1503
f 1502 1504 1499
f 1505 1503 1501
f 1504 1502 1506
f 1503 1505 1507
f 1508 1504 1506
f 1505 1509 1507
f 1504 1508 1510
f 1509 1505 1511
f 1512 1510 1508
f 1511 1513 1509
f 1510 1512 1514
f 1513 1511 1515
f 1512 1516 1514
f 1517 1513 1515
f 1516 1512 1518
f 1513 1517 1519
f 1520 1516 1518
f 1517 1521 1519
f 1516 1520 1522
f 1521 1517 1523
f 1524 1522 1520
f 1525 1521 1523
f 1522 1524 1526
f 1527 1526 1524
f 1526 1527 1528
f 1521 1525 1529
f 1530 1529 1525
f 1529 1530 1531
f 1532 1533 1534
f 1533 1532 1535
f 1532 1536 1535
f 1536 1532 1537
f 1537 1538 1536
f 1538 1537 1539
f 1540 1538 1539
f 1540 1541 1538
f 1542 1541 1540
f 1542 1543 1541
f 1544 1543 1542
f 1543 1544 1545
f 1544 1546 1545
f 1546 1544 1547
f 1548 1549 1550
f 1549 1548 1551
